<svg width="1200" height="560" viewBox="0 0 1200 560" fill="none" xmlns="http://www.w3.org/2000/svg">
  <rect width="1200" height="560" rx="28" fill="#FFF9F3"/>
  <rect x="36" y="36" width="1128" height="488" rx="24" fill="#FFFDF9" stroke="#E7D8C8" stroke-width="2"/>
  <text x="70" y="95" fill="#5A3118" font-family="Segoe UI, Arial, sans-serif" font-size="34" font-weight="700">ResNet-18 Principle Diagram</text>
  <text x="70" y="130" fill="#7A5C47" font-family="Segoe UI, Arial, sans-serif" font-size="18">Residual blocks preserve stable gradient flow for BI-RADS classification and feature recognition</text>

  <rect x="70" y="190" width="130" height="160" rx="18" fill="#F8E6D6" stroke="#D0A581" stroke-width="2"/>
  <text x="98" y="245" fill="#5A3118" font-family="Segoe UI, Arial, sans-serif" font-size="24" font-weight="700">Input</text>
  <text x="95" y="285" fill="#7A5C47" font-family="Segoe UI, Arial, sans-serif" font-size="18">Image</text>
  <text x="83" y="315" fill="#7A5C47" font-family="Segoe UI, Arial, sans-serif" font-size="18">224 × 224</text>

  <rect x="250" y="175" width="180" height="190" rx="20" fill="#EFE2D6" stroke="#B99270" stroke-width="2"/>
  <text x="282" y="220" fill="#5A3118" font-family="Segoe UI, Arial, sans-serif" font-size="24" font-weight="700">Stem</text>
  <rect x="285" y="245" width="110" height="28" rx="10" fill="#D9B08A"/>
  <rect x="285" y="286" width="110" height="28" rx="10" fill="#C99263"/>
  <text x="282" y="338" fill="#7A5C47" font-family="Segoe UI, Arial, sans-serif" font-size="16">Conv 7×7 + Pool</text>

  <rect x="485" y="145" width="430" height="250" rx="22" fill="#F1F6FF" stroke="#8DA7C7" stroke-width="2"/>
  <text x="610" y="190" fill="#314B6C" font-family="Segoe UI, Arial, sans-serif" font-size="26" font-weight="700">Residual Stages</text>

  <rect x="520" y="220" width="78" height="110" rx="14" fill="#D9E7FB"/>
  <rect x="620" y="220" width="78" height="110" rx="14" fill="#C7DCF8"/>
  <rect x="720" y="220" width="78" height="110" rx="14" fill="#B4D0F6"/>
  <rect x="820" y="220" width="78" height="110" rx="14" fill="#A5C2F3"/>
  <text x="535" y="282" fill="#315C99" font-family="Segoe UI, Arial, sans-serif" font-size="18" font-weight="700">2 Blocks</text>
  <text x="635" y="282" fill="#315C99" font-family="Segoe UI, Arial, sans-serif" font-size="18" font-weight="700">2 Blocks</text>
  <text x="735" y="282" fill="#315C99" font-family="Segoe UI, Arial, sans-serif" font-size="18" font-weight="700">2 Blocks</text>
  <text x="835" y="282" fill="#315C99" font-family="Segoe UI, Arial, sans-serif" font-size="18" font-weight="700">2 Blocks</text>
  <path d="M559 340C559 380 659 380 659 340" stroke="#567CB3" stroke-width="4"/>
  <path d="M659 340C659 380 759 380 759 340" stroke="#567CB3" stroke-width="4"/>
  <path d="M759 340C759 380 859 380 859 340" stroke="#567CB3" stroke-width="4"/>
  <text x="560" y="374" fill="#587096" font-family="Segoe UI, Arial, sans-serif" font-size="16">Identity shortcut connections</text>

  <rect x="970" y="190" width="150" height="160" rx="18" fill="#F8EAE3" stroke="#C98D74" stroke-width="2"/>
  <text x="998" y="235" fill="#8A4F2B" font-family="Segoe UI, Arial, sans-serif" font-size="24" font-weight="700">Output</text>
  <text x="996" y="275" fill="#7A4C2D" font-family="Segoe UI, Arial, sans-serif" font-size="17">Global AvgPool</text>
  <text x="996" y="307" fill="#7A4C2D" font-family="Segoe UI, Arial, sans-serif" font-size="17">Fully Connected</text>
  <text x="996" y="339" fill="#7A4C2D" font-family="Segoe UI, Arial, sans-serif" font-size="17">BI-RADS / Features</text>

  <path d="M200 270H250" stroke="#8A4F2B" stroke-width="6" stroke-linecap="round"/>
  <path d="M430 270H485" stroke="#8A4F2B" stroke-width="6" stroke-linecap="round"/>
  <path d="M915 270H970" stroke="#8A4F2B" stroke-width="6" stroke-linecap="round"/>
</svg>
