<svg width="1200" height="700" viewBox="0 0 1200 700" fill="none" xmlns="http://www.w3.org/2000/svg">
  <rect width="1200" height="700" rx="28" fill="#FFF9F3"/>
  <rect x="36" y="36" width="1128" height="628" rx="24" fill="#FFFDF9" stroke="#E7D8C8" stroke-width="2"/>
  <text x="70" y="90" fill="#5A3118" font-family="Segoe UI, Arial, sans-serif" font-size="34" font-weight="700">YOLOv11 Lesion Localization Example</text>
  <text x="70" y="126" fill="#7A5C47" font-family="Segoe UI, Arial, sans-serif" font-size="18">Illustrative example showing detected lesion region and confidence score</text>

  <rect x="96" y="160" width="1008" height="448" rx="24" fill="#D5DCE5"/>
  <ellipse cx="600" cy="384" rx="360" ry="180" fill="#A9B6C6"/>
  <ellipse cx="600" cy="384" rx="255" ry="128" fill="#C6D0DC"/>
  <ellipse cx="682" cy="346" rx="96" ry="72" fill="#6E7E92" fill-opacity="0.95"/>
  <ellipse cx="682" cy="346" rx="58" ry="43" fill="#596B82" fill-opacity="0.92"/>
  <ellipse cx="682" cy="346" rx="22" ry="16" fill="#E98A8A" fill-opacity="0.85"/>

  <rect x="560" y="256" width="244" height="180" rx="16" stroke="#FF6B57" stroke-width="8" stroke-dasharray="18 12"/>
  <circle cx="560" cy="256" r="8" fill="#FF6B57"/>
  <rect x="560" y="206" width="248" height="40" rx="12" fill="#FF6B57"/>
  <text x="580" y="232" fill="white" font-family="Segoe UI, Arial, sans-serif" font-size="22" font-weight="700">Lesion 0.94</text>

  <path d="M452 296L560 296" stroke="#B87B49" stroke-width="4" stroke-linecap="round"/>
  <path d="M452 296L474 278" stroke="#B87B49" stroke-width="4" stroke-linecap="round"/>
  <path d="M452 296L474 314" stroke="#B87B49" stroke-width="4" stroke-linecap="round"/>
  <rect x="252" y="246" width="172" height="84" rx="18" fill="#FFF1E4" stroke="#E1B792" stroke-width="2"/>
  <text x="274" y="280" fill="#7A4C2D" font-family="Segoe UI, Arial, sans-serif" font-size="20" font-weight="700">Detected region</text>
  <text x="274" y="308" fill="#7A5C47" font-family="Segoe UI, Arial, sans-serif" font-size="17">Candidate tumor area</text>

  <rect x="96" y="620" width="1008" height="18" rx="9" fill="#EAD4C1"/>
  <rect x="96" y="620" width="756" height="18" rx="9" fill="#C98D74"/>
  <text x="96" y="675" fill="#7A5C47" font-family="Segoe UI, Arial, sans-serif" font-size="18">This figure is a schematic example for homepage presentation rather than actual patient data.</text>
</svg>
